<?xml version="1.0" encoding="utf-8"?>
<!-- Generator: Adobe Illustrator 16.0.3, SVG Export Plug-In . SVG Version: 6.00 Build 0)  -->
<!DOCTYPE svg PUBLIC "-//W3C//DTD SVG 1.1//EN" "http://www.w3.org/Graphics/SVG/1.1/DTD/svg11.dtd">
<svg version="1.1" id="Layer_1" xmlns="http://www.w3.org/2000/svg" xmlns:xlink="http://www.w3.org/1999/xlink" x="0px" y="0px"
	 width="409.333px" height="82.167px" viewBox="0 0 409.333 82.167" enable-background="new 0 0 409.333 82.167"
	 xml:space="preserve">
<g>
	<path fill="#D7DF23" d="M50.813,60.471c-2.777,0-4.544-1.598-4.544-4.458c0-3.953,1.767-8.749,2.439-12.786
		c0.758-4.711,1.935-9.674,1.935-14.469c0-2.691-0.757-2.691-3.029-2.691c-0.502,0-1.597,0-2.103,0.252
		c-4.456,2.524-6.896,12.871-7.654,17.413l-2.606,15.815H24.734l4.29-26.415c0.168-1.262,0.338-2.607,0.338-3.869
		c0-2.692-0.591-3.197-3.029-3.197c-0.504,0-1.599,0-2.104,0.252c-4.457,2.524-6.98,12.871-7.739,17.413l-2.606,15.815H3.452
		L8.584,26.74l-5.552,0.336l0.59-4.206c5.046-0.757,10.178-1.178,15.141-2.524l-0.083,5.637c2.102-3.786,7.232-5.637,11.354-5.637
		c4.291,0,8.413,1.767,9.506,6.309c2.944-4.038,6.729-6.309,11.777-6.309c5.719,0,9.758,3.028,9.758,9.001
		c0,6.225-2.356,16.487-3.533,22.881c2.02-1.683,3.7-3.197,4.711-4.375l2.438,2.188C61.916,53.153,55.271,60.471,50.813,60.471z"/>
	<path fill="#D7DF23" d="M92.539,60.639c-2.946,0-3.871-2.271-3.871-4.962c0-1.177,0.17-2.439,0.338-3.617h-0.168
		c-2.439,5.383-7.656,8.579-13.46,8.579c-6.309,0-8.664-10.01-8.664-14.805c0-11.693,7.318-25.404,20.44-25.404
		c2.523,0,4.796,0.588,7.067,1.682c0.589-1.094,1.261-2.02,2.103-2.944c1.179-0.504,2.523-0.673,3.786-0.673
		c1.178,0,2.438,0.168,3.616,0.336l-4.71,33.649l4.71-4.628l2.439,2.188C103.643,53.069,96.66,60.639,92.539,60.639z M88.585,25.562
		c-0.757,0-2.439,0.083-3.111,0.42c-3.113,1.934-6.311,10.178-6.814,13.795c-0.42,2.692-0.673,5.467-0.673,8.16
		c0,1.599,0,6.478,2.523,6.478c6.141,0,9.926-16.235,10.515-20.694l0.926-7.066C91.024,25.898,89.762,25.562,88.585,25.562z"/>
	<path fill="#D7DF23" d="M137.041,60.471c-2.776,0-4.543-1.683-4.543-4.542c0-4.122,1.599-8.581,2.104-12.703
		c0.589-4.711,1.766-9.589,1.766-14.301c0-2.775-0.757-2.859-3.112-2.859c-0.505,0-1.599,0-2.104,0.252
		c-4.373,2.524-6.729,12.871-7.402,17.413l-2.354,15.815h-10.348l4.459-32.807l-5.554,0.336l0.507-4.206
		c5.131-0.757,10.262-1.178,15.226-2.524l-0.084,5.637c2.186-3.786,7.233-5.637,11.356-5.637c5.887,0,9.926,3.281,9.926,9.337
		c0,5.973-2.019,16.488-3.281,22.545c1.682-1.347,3.365-2.776,4.796-4.375l2.438,2.188
		C148.061,53.238,141.584,60.471,137.041,60.471z"/>
	<path fill="#D7DF23" d="M150.416,81.417c-4.542,0-11.103-2.777-11.103-8.076c0-1.935,1.094-3.113,3.28-4.962l8.076-1.346
		c-0.254,1.429-0.59,2.943-0.59,4.374c0,1.683,1.346,3.113,3.029,3.113c3.28,0,10.515-6.73,10.515-10.095
		c0-8.412-5.636-30.031-9.169-37.77l-4.795,0.337V22.87c4.626-0.505,9.085-1.346,13.626-2.692
		c4.712,10.684,7.656,22.881,8.665,34.489c3.956-6.309,5.806-16.152,5.806-23.385c0-3.871-1.431-5.216-4.375-5.216
		c-0.589,0-1.095,0.084-1.768,0.168l-0.42-4.71c2.439-1.01,4.458-1.178,7.066-1.178c5.383,0,9.504,1.682,9.504,7.991
		C187.765,41.376,164.717,81.417,150.416,81.417z"/>
	<path fill="#D7DF23" d="M234.795,53.069c-6.898,6.898-13.29,6.982-22.039,7.15h-1.096c1.263-6.898,2.104-14.048,2.104-21.029
		c0-4.123-0.167-8.328-0.757-12.45l-5.973,0.421l0.422-4.291c5.3-0.589,10.851-1.093,15.983-2.524
		c1.008,5.805,1.513,11.861,1.513,17.75c0,5.636-1.093,10.767-1.683,16.319c9.676-1.431,12.112-15.226,12.112-22.881
		c0-3.87-0.503-5.468-3.447-5.468c-0.587,0-1.178,0.084-1.935,0.168l0.168-4.71c2.271-0.925,4.543-1.178,6.897-1.178
		c6.141,0,8.75,3.365,8.75,9.169C245.815,37.591,240.347,47.517,234.795,53.069z"/>
	<path fill="#D7DF23" d="M262.641,60.471c-9.926,0-15.31-6.309-15.31-16.067c0-11.861,7.066-24.059,20.104-24.059
		c10.18,0,15.31,6.646,15.31,16.405C282.744,48.61,275.679,60.471,262.641,60.471z M267.015,24.805
		c-0.589,0-2.019,0.337-2.523,0.672c-2.86,2.103-5.216,11.862-5.638,15.226c-0.251,2.271-0.504,4.627-0.504,6.897
		c0,3.281,0.337,8.413,4.797,8.413c0.503,0,1.765-0.168,2.27-0.421c2.943-2.271,5.383-11.355,5.805-14.889
		c0.337-2.607,0.506-5.468,0.506-7.907C271.727,29.432,271.39,24.805,267.015,24.805z"/>
	<path fill="#D7DF23" d="M304.953,47.853l2.355,2.271c-2.774,3.113-9.42,10.347-13.879,10.347c-2.776,0-4.458-1.598-4.458-4.458
		c0-0.421,0.082-0.925,0.167-1.43c1.347-9.253,3.029-18.59,4.543-27.843l-5.468,0.336l0.588-4.122
		c5.47-0.504,11.104-1.514,16.488-2.608c-1.515,10.6-3.113,21.367-5.047,31.966C301.926,50.881,303.438,49.368,304.953,47.853z
		 M300.412,14.121c-3.197,0-5.301-2.187-5.301-5.3c0-3.953,2.944-7.655,7.065-7.655c3.198,0,5.217,2.271,5.217,5.383
		C307.394,10.503,304.534,14.121,300.412,14.121z"/>
	<path fill="#D7DF23" d="M338.266,30.693l-8.244,1.346c0.336-1.514,0.758-3.028,0.758-4.542s-0.338-1.935-1.684-1.935
		c-0.505,0-0.925,0-1.262,0.336c-4.879,4.122-6.225,13.123-6.225,19.095c0,3.112,0.42,9.927,4.794,9.927
		c4.964,0,8.834-3.954,11.525-7.656l2.692,2.524c-4.964,5.973-9.254,10.851-17.582,10.851c-9.252,0-12.701-7.99-12.701-16.066
		c0-12.366,7.065-24.142,20.524-24.142c3.281,0,10.431,0.504,10.431,5.046C341.293,27.917,340.031,29.263,338.266,30.693z"/>
	<path fill="#D7DF23" d="M354.165,43.648c0,0.756-0.084,1.429-0.084,2.102c0,3.281,0.59,9.17,5.047,9.17
		c4.796,0,8.748-4.291,11.525-7.656l2.69,2.524c-5.046,5.973-9.253,10.851-17.581,10.851c-9.17,0-12.787-6.981-12.787-15.309
		c0-12.029,7.403-24.984,20.692-24.984c4.545,0,10.517,0.505,10.517,6.309C374.185,37.087,362.745,41.965,354.165,43.648z
		 M362.072,25.477c-0.506,0-1.094,0-1.431,0.337c-3.7,3.112-5.299,8.496-5.887,13.122c6.307-1.177,10.093-4.206,10.093-11.104
		C364.848,26.15,363.586,25.477,362.072,25.477z"/>
	<path fill="#D7DF23" d="M404.133,30.104l-8.496,1.263c0.589-1.263,0.842-2.608,0.842-3.955c0-1.766-0.926-2.438-2.692-2.438
		c-2.271,0-4.626,1.598-4.626,4.038c0,4.458,7.401,6.897,12.03,11.44c2.101,2.02,3.615,4.879,3.615,8.16
		c0,8.833-8.411,11.861-16.067,11.861h-0.672c-3.869,0-12.786-0.168-12.786-5.047c0-2.271,1.094-3.785,2.859-5.132l8.16-1.261
		c-0.252,1.093-0.59,2.271-0.59,3.45c0,2.186,1.516,3.364,3.617,3.364c2.692,0,4.796-2.271,4.796-4.878
		c0-5.468-8.581-7.15-12.954-11.777c-1.514-1.599-2.524-3.955-2.524-6.478c0-8.832,7.908-12.281,15.815-12.281
		c2.944,0,11.945,0.083,11.945,4.542C406.405,26.907,405.479,28.758,404.133,30.104z"/>
</g>
<g>
	<path fill="#D1D3D4" d="M-355.682,44.264c-0.448,0.234-3.043,1.437-5.575,1.437c-6.931,0-9.716-4.073-9.716-8.503V12.402h4.287
		v23.224c0,4.428,2.571,6.001,5.644,6.001c2.716,0,4.761-1.188,5.36-1.545 M-350.824,45.272v-32.87h4.287v32.87H-350.824z"/>
	<path fill="#D1D3D4" d="M-283.025,45.271V12.402h4.287v32.869H-283.025z M-263.519,45.271v-24.58c0-3.714-2.858-4.573-4.574-4.573
		c-2.214,0-5.146,1.335-5.645,1.763v-4.309c0.821-0.584,4.146-1.599,6.002-1.599c6.789,0,8.504,4.001,8.504,9.791v23.507H-263.519z
		 M-244.156,45.271v-24.58c0-3.714-2.858-4.573-4.644-4.573c-2.612,0-5.504,1.783-5.504,1.783V13.38c0,0,2.86-1.334,5.86-1.334
		c6.145,0,8.574,4.001,8.574,7.717v25.508H-244.156z"/>
	<path fill="#D1D3D4" d="M-336.384,45.271V12.402h4.286v32.869H-336.384z M-316.876,45.271v-24.58c0-3.714-2.859-4.573-4.575-4.573
		c-2.213,0-5.146,1.335-5.645,1.763v-4.309c0.822-0.584,4.146-1.599,6.003-1.599c6.788,0,8.503,4.001,8.503,9.791v23.507H-316.876z
		 M-297.514,45.271v-24.58c0-3.714-2.858-4.573-4.643-4.573c-2.613,0-5.504,1.783-5.504,1.783V13.38c0,0,2.859-1.334,5.859-1.334
		c6.145,0,8.574,4.001,8.574,7.717v25.508H-297.514z"/>
	<path fill="#D1D3D4" d="M-218.576,44.847c-1.224,0.458-3.075,0.853-4.574,0.853c-5.645,0-8.502-3.715-8.502-8.146
		c0-6.287,5.514-9.714,13.076-11.429v4.021c-3.853,1.055-8.718,3.407-8.718,7.051s2.214,4.859,4.787,4.859
		c1.071,0,3.289-0.686,3.931-1.166 M-213.717,45.271V21.978c0-4.358-2.287-6.072-6.074-6.072c-3.646,0-7.503,3.358-7.931,3.714
		l-2.5-3.071c1.284-1.001,4.715-4.574,10.432-4.574c5.645,0,10.36,2.644,10.36,9.219v24.079H-213.717z"/>
	<g>
		<g>
			<path fill="#D1D3D4" d="M-362.094,65.718c0,4.017-3.01,4.588-4.628,4.588c-1.543,0-4.572-0.571-4.572-4.588
				c0-2.039-0.021-5.182-0.039-6.399c0.497,0.038,0.782,0.038,1.124,0.038c0.326,0,1.068-0.021,1.353-0.038
				c-0.038,1.561-0.056,4.702-0.056,6.284c0,1.045,0.078,2.362,2.229,2.362c2.131,0,2.208-1.408,2.208-2.344
				c0-1.771-0.038-4.719-0.078-6.302c0.25,0.017,1.086,0.038,1.428,0.038c0.404,0,0.616,0,1.088-0.038
				C-362.074,60.709-362.094,63.679-362.094,65.718z"/>
			<path fill="#D1D3D4" d="M-349.794,64.997c0,0.969,0,3.331,0,5.064c-0.343-0.021-0.572-0.021-0.954-0.021
				c-0.572,0-1.181,0.021-1.485,0.021c-0.666-0.952-1.621-2.396-2.61-4.152c-0.878-1.488-1.446-2.515-1.83-3.6
				c-0.018,0-0.057,0.018-0.057,0.018c0.078,0.743,0.094,1.734,0.094,2.819c0,1.982,0.021,3.771,0.06,4.915
				c-0.495-0.021-0.856-0.021-1.295-0.021c-0.419,0-0.726,0-1.145,0.021c0.04-1.543,0.06-3.181,0.06-5.255
				c0-1.886-0.02-3.983-0.077-5.487c0.437,0.017,0.914,0.038,1.393,0.038c0.608,0,1.14,0,1.598-0.038
				c0.551,0.951,1.238,1.979,2.208,3.828c0.84,1.543,1.448,2.761,1.773,3.921l0.077-0.038c-0.077-1.027-0.133-2.034-0.133-3.164
				c0-1.444,0-2.949-0.096-4.547c0.514,0.038,0.875,0.038,1.41,0.038c0.417,0,0.744,0,1.083-0.038
				C-349.775,61.108-349.794,62.69-349.794,64.997z"/>
			<path fill="#D1D3D4" d="M-344.196,65.453c0,1.79,0.038,4.055,0.057,4.608c-0.266-0.021-0.782-0.021-1.236-0.021
				c-0.477,0-0.781,0-1.297,0.021c0.02-0.554,0.059-2.819,0.059-4.65c0-2.359-0.04-4.509-0.097-6.092
				c0.495,0.038,0.858,0.038,1.334,0.038c0.476,0,0.796,0,1.275-0.038C-344.159,60.902-344.196,63.109-344.196,65.453z"/>
			<path fill="#D1D3D4" d="M-333.244,64.176c-1.257,3.372-1.961,5.179-2.19,5.922c-0.268-0.037-0.972-0.074-1.371-0.074
				c-0.418,0-1.085,0.037-1.411,0.074c-0.208-0.778-0.933-2.572-2.169-5.922c-1.104-2.932-1.636-4.191-1.753-4.856
				c0.515,0.059,0.725,0.059,1.296,0.059c0.419,0,1.009-0.021,1.388-0.059c0.287,0.82,1.013,2.914,1.792,5.257
				c0.553,1.674,0.762,2.38,0.837,3.162h0.06c0.073-0.765,0.263-1.488,0.837-3.146c0.799-2.359,1.505-4.398,1.77-5.273
				c0.362,0.038,1.011,0.059,1.428,0.059c0.534,0,0.554,0,1.239-0.059C-331.645,60.024-332.159,61.298-333.244,64.176z"/>
			<path fill="#D1D3D4" d="M-324.514,61.605c-1.141,0-1.923,0-2.551-0.02c0,0,0.037,0.819,0.037,1.18c0,0.364,0,0.497-0.021,1.03
				c0.404-0.017,0.956-0.017,1.89-0.017c0.876,0,1.901-0.022,2.361-0.042c0,0.439-0.02,0.685-0.02,0.972c0,0.325,0,0.723,0.02,1.048
				c-0.668-0.02-1.544-0.038-2.361-0.038c-0.973,0-1.317,0-1.905-0.038c0.037,0.208,0.056,0.649,0.056,1.026
				c0,0.422-0.02,0.859-0.056,1.143c0.515-0.037,1.466-0.037,2.514-0.037c0.949,0,1.752,0,2.377-0.035
				c-0.016,0.476-0.016,0.781-0.016,1.176c0,0.437,0.016,0.782,0.016,1.107c-0.933-0.021-2.11-0.021-3.292-0.021
				c-1.162,0-2.876,0-3.962,0.021c0.02-1.83,0.037-3.354,0.037-5.39c0-2.096,0-2.972-0.096-5.352
				c1.088,0.038,2.154,0.038,3.788,0.038c2.022,0,2.88-0.038,3.622-0.038c-0.018,0.419-0.036,0.61-0.036,1.103
				c0,0.516,0.019,0.743,0.036,1.219C-322.759,61.623-323.408,61.605-324.514,61.605z"/>
			<path fill="#D1D3D4" d="M-312.635,70.04c-0.571,0-1.051,0-1.56,0.021c-0.307-0.628-0.478-1.011-1.047-2.02
				c-0.706-1.124-0.974-1.485-1.316-1.866l-0.437-0.039c0.017,0.42,0.017,0.667,0.017,1.868c0,0.949,0.018,1.273,0.056,2.057
				c-0.476-0.021-0.892-0.021-1.2-0.021c-0.342,0-0.818,0-1.273,0.021c0.017-1.388,0.056-2.837,0.056-4.876
				c0-2.667-0.04-4.323-0.077-5.865h4.174c2.396,0,3.808,1.084,3.808,3.408c0,1.791-1.011,3.161-2.801,3.238v0.057
				c0.437,0.228,0.742,0.591,1.448,1.643c0.8,1.232,1.161,1.901,1.485,2.396C-311.893,70.04-312.119,70.04-312.635,70.04z
				 M-315.281,61.545h-1.735c0.038,0.419,0.038,0.84,0.038,1.429c0,0.569,0,0.84-0.038,1.447h1.753c0.399,0,1.465-0.038,1.465-1.483
				C-313.798,61.585-314.749,61.545-315.281,61.545z"/>
			<path fill="#D1D3D4" d="M-301.826,59.965c-0.153,0.648-0.248,1.486-0.287,2.151c-0.762-0.494-1.637-0.589-2.8-0.589
				c-1.505,0-2.133,0.457-2.133,1.2c0,0.762,0.287,0.933,2.172,1.237c2.267,0.363,3.01,1.221,3.01,2.84
				c0,2.055-1.487,3.466-4.075,3.466c-1.22,0-2.268-0.189-3.106-0.703c0.135-0.708,0.19-1.239,0.228-2.078
				c0.819,0.38,1.696,0.516,2.744,0.516c1.276,0,1.865-0.4,1.865-1.201c0-0.762-0.285-0.953-2.131-1.256
				c-2.304-0.363-3.065-1.165-3.065-2.895c0-2.021,1.637-3.468,4.456-3.468C-303.599,59.185-302.625,59.394-301.826,59.965z"/>
			<path fill="#D1D3D4" d="M-296.759,65.453c0,1.79,0.041,4.055,0.056,4.608c-0.265-0.021-0.78-0.021-1.236-0.021
				c-0.478,0-0.781,0-1.297,0.021c0.021-0.554,0.059-2.819,0.059-4.65c0-2.359-0.038-4.509-0.096-6.092
				c0.494,0.038,0.856,0.038,1.333,0.038c0.476,0,0.798,0,1.275-0.038C-296.719,60.902-296.759,63.109-296.759,65.453z"/>
			<path fill="#D1D3D4" d="M-287.205,61.681c-0.822,0-1.182,0-1.983-0.059c0.059,1.008,0.095,2.114,0.095,3.734
				c0,2.076,0.039,3.387,0.057,4.704c-0.512-0.021-0.8-0.021-1.257-0.021c-0.435,0-0.779,0-1.237,0.021
				c0.04-1.41,0.058-2.628,0.058-4.744c0-1.599,0.038-2.664,0.096-3.695c-0.667,0.059-1.162,0.059-1.981,0.059
				c-0.59,0-0.837,0.018-1.333,0.057c0.018-0.345,0.018-0.836,0.018-1.296c0-0.381,0-0.723-0.018-1.123
				c1.465,0.038,3.181,0.038,4.397,0.038c1.257,0,3.029,0,4.439-0.038c-0.02,0.419-0.04,0.761-0.04,1.146
				c0,0.436,0,0.911,0.04,1.272C-286.369,61.699-286.617,61.681-287.205,61.681z"/>
			<path fill="#D1D3D4" d="M-276.187,62.479c-1.009,1.733-1.353,2.247-2.018,3.372c0.037,0.479,0.056,0.972,0.056,1.83
				c0,0.878,0,1.352,0.055,2.381c-0.135-0.021-0.854-0.021-1.256-0.021c-0.401,0-1.142,0-1.276,0.021
				c0.021-1.029,0.057-1.448,0.057-2.381c0-0.783,0-1.315,0.04-1.83c-0.647-1.044-0.991-1.638-1.98-3.372
				c-0.724-1.235-1.392-2.34-1.847-3.16c0.455,0.038,0.742,0.038,1.255,0.038c0.497,0,1.065,0,1.468-0.038
				c0.267,0.59,0.645,1.294,1.216,2.397c0.613,1.181,0.897,1.772,1.049,2.553h0.059c0.168-0.799,0.456-1.446,1.009-2.532
				c0.572-1.106,0.989-1.888,1.2-2.419c0.398,0.038,0.969,0.038,1.483,0.038c0.536,0,0.84,0,1.278-0.038
				C-274.874,60.175-275.446,61.262-276.187,62.479z"/>
			<path fill="#D1D3D4" d="M-263.093,70.385c-3.275,0-5.237-2.44-5.237-5.694c0-3.393,1.807-5.561,5.237-5.561
				c3.449,0,5.216,2.168,5.216,5.561C-257.877,67.945-259.8,70.385-263.093,70.385z M-263.093,61.393
				c-2.058,0-2.914,1.049-2.914,3.333c0,2.096,0.953,3.391,2.914,3.391c1.98,0,2.895-1.294,2.895-3.391
				C-260.198,62.442-261.057,61.393-263.093,61.393z"/>
			<path fill="#D1D3D4" d="M-250.385,61.623c-0.915,0-1.696-0.018-2.361-0.038c0.057,0.379,0.038,0.686,0.038,1.161
				c0,0.496,0,0.914-0.038,1.41c0.307-0.017,1.429-0.037,2.132-0.037c1.013,0,1.562,0,1.909-0.041
				c-0.042,0.363-0.042,0.552-0.042,0.896s0.021,0.744,0.042,1.146c-0.438-0.022-0.917-0.022-1.926-0.022
				c-0.723,0-1.523,0-2.153-0.037c0.039,0.535,0.056,1.048,0.056,1.717c0,0.949,0.021,1.427,0.04,2.284
				c-0.342-0.021-0.931-0.021-1.274-0.021c-0.399,0-0.703,0-1.163,0.021c0.02-1.431,0.038-3.413,0.038-5.543
				c0-2-0.018-3.827-0.056-5.199c0.896,0.017,2.399,0.017,3.79,0.017c1.315,0,2.608,0,3.218-0.017
				c-0.018,0.381-0.018,0.55-0.018,1.05c0,0.511,0,0.875,0.018,1.29C-248.84,61.641-249.355,61.623-250.385,61.623z"/>
			<path fill="#D1D3D4" d="M-229.572,64.671c0,1.79,0.02,3.887,0.076,5.39c-0.4-0.021-0.838-0.021-1.125-0.021
				c-0.359,0-0.685,0-1.258,0.021c0.04-1.275,0.04-2.212,0.04-3.774c0-1.579,0.02-3.292,0.095-4.094l-0.075-0.037
				c-0.284,1.124-0.743,2.607-1.238,3.963c-0.573,1.598-0.991,2.666-1.544,3.941c-0.285-0.021-0.516-0.021-0.914-0.021
				c-0.399,0-0.629,0-0.933,0.021c-0.553-1.275-1.01-2.477-1.583-4.096c-0.477-1.22-0.896-2.762-1.199-3.791l-0.076,0.037
				c0.076,0.824,0.099,2.515,0.099,4.039c0,1.048,0,2.573,0.036,3.811c-0.228-0.021-0.837-0.037-1.202-0.037
				c-0.302,0-0.685,0.016-1.181,0.037c0.04-1.583,0.079-3.391,0.079-5.22c0-2-0.039-3.999-0.058-5.522
				c0.703,0.059,1.085,0.038,1.581,0.038c0.513,0,1.256-0.021,1.62-0.038c0.285,0.705,0.626,1.561,1.2,3.181
				c0.743,2.113,1.333,3.942,1.561,5.18h0.095c0.247-1.238,0.822-3.032,1.563-5.163c0.532-1.542,0.915-2.493,1.218-3.198
				c0.441,0.038,1.049,0.038,1.563,0.038c0.59,0,0.932,0,1.639-0.038C-229.553,60.614-229.572,62.479-229.572,64.671z"/>
			<path fill="#D1D3D4" d="M-223.943,65.453c0,1.79,0.041,4.055,0.056,4.608c-0.265-0.021-0.776-0.021-1.236-0.021
				c-0.475,0-0.781,0-1.296,0.021c0.021-0.554,0.06-2.819,0.06-4.65c0-2.359-0.04-4.509-0.097-6.092
				c0.496,0.038,0.858,0.038,1.333,0.038c0.479,0,0.8,0,1.276-0.038C-223.903,60.902-223.943,63.109-223.943,65.453z"/>
			<path fill="#D1D3D4" d="M-212.897,62.385c-0.685-0.609-1.39-0.895-2.798-0.895c-2.248,0-3.259,1.373-3.259,3.236
				c0,2,1.202,3.219,3.259,3.219c1.142,0,1.901-0.304,2.648-0.837c0.019,0.669,0.072,1.6,0.208,2.191
				c-0.726,0.646-1.657,0.989-2.914,0.989c-3.314,0-5.582-2.303-5.582-5.597c0-3.201,2.136-5.561,5.617-5.561
				c1.583,0,2.499,0.396,3.144,1.064C-212.725,60.729-212.879,61.776-212.897,62.385z"/>
			<path fill="#D1D3D4" d="M-201.301,64.824c0,2.037,0,3.884,0.058,5.237c-0.401-0.021-0.762-0.021-1.049-0.021
				s-0.934,0-1.432,0.021c0.021-0.879,0.042-1.372,0.042-2.381c0-0.989,0.035-1.676,0.035-1.979
				c-0.358,0.018-1.179,0.035-2.052,0.035c-0.86,0-1.411,0-2.058-0.035c0,0.283,0.034,1.046,0.034,1.964
				c0,1.079,0.02,1.595,0.04,2.396c-0.455-0.021-1.066-0.021-1.332-0.021c-0.288,0-0.724,0-1.127,0.021
				c0.021-1.388,0.059-3.222,0.059-5.255c0-2.116-0.017-3.773-0.076-5.487c0.44,0.038,0.668,0.038,1.144,0.038
				c0.475,0,0.932-0.021,1.332-0.038c-0.058,0.82-0.04,1.277-0.04,1.925c0,1.008-0.019,2.227-0.074,2.534
				c0.706-0.042,0.971-0.042,2.098-0.042c1.101,0,1.425,0.019,2.071,0.042c-0.038-0.307-0.038-1.507-0.038-2.516
				c0-0.709-0.017-1.107-0.038-1.943c0.191,0.017,0.916,0.038,1.392,0.038c0.458,0,0.63-0.021,1.084-0.038
				C-201.301,61.244-201.301,62.708-201.301,64.824z"/>
			<path fill="#D1D3D4" d="M-195.668,65.453c0,1.79,0.038,4.055,0.058,4.608c-0.268-0.021-0.781-0.021-1.239-0.021
				c-0.473,0-0.78,0-1.293,0.021c0.018-0.554,0.055-2.819,0.055-4.65c0-2.359-0.037-4.509-0.093-6.092
				c0.494,0.038,0.858,0.038,1.331,0.038c0.477,0,0.803,0,1.278-0.038C-195.63,60.902-195.668,63.109-195.668,65.453z"/>
			<path fill="#D1D3D4" d="M-184.135,62.348c-0.78-0.648-1.756-0.858-3.143-0.858c-2.267,0-3.373,1.201-3.373,3.255
				c0,2.189,1.048,3.315,3.354,3.315c0.383,0,0.626-0.037,0.969-0.095c-0.035-0.589-0.072-1.047-0.072-1.693
				c0-0.61,0-1.087-0.06-1.43c0.4,0.018,0.8,0.018,1.202,0.018c0.417,0,0.722,0,1.124-0.018c-0.056,0.82-0.077,1.466-0.077,2.497
				c0,1.237,0,1.693,0.04,2.417c-0.305,0.077-0.727,0.19-1.183,0.306c-0.723,0.191-1.198,0.227-1.922,0.227
				c-3.638,0-5.752-2.265-5.752-5.543c0-3.352,2.285-5.615,5.772-5.615c1.444,0,2.608,0.302,3.388,1.009
				C-184.021,60.786-184.116,61.623-184.135,62.348z"/>
			<path fill="#D1D3D4" d="M-172.891,70.04c-0.514,0-0.857,0-1.312,0.021c-0.289-0.839-0.534-1.565-0.689-2.116
				c-0.607,0.04-1.083,0.04-2.055,0.04c-0.992,0-1.43,0-2.077-0.04c-0.111,0.534-0.378,1.237-0.667,2.116
				c-0.417-0.021-0.836-0.021-1.331-0.021c-0.46,0-0.724,0-1.162,0.021c0.474-1.258,0.702-2.133,1.162-3.466
				c0.952-2.781,1.921-5.715,2.416-7.276c0.534,0.017,1.142,0.038,1.698,0.038c0.513,0,1.18-0.021,1.616-0.038
				c0.478,1.542,1.469,4.495,2.419,7.276c0.457,1.333,0.687,2.228,1.163,3.466C-172.167,70.04-172.435,70.04-172.891,70.04z
				 M-176.927,61.358h-0.058c-0.208,0.933-0.801,2.798-1.543,4.796c0.571-0.034,0.916-0.034,1.562-0.034
				c0.746,0,1.009,0,1.599,0.034C-176.148,64.156-176.662,62.291-176.927,61.358z"/>
			<path fill="#D1D3D4" d="M-160.39,64.997c0,0.969,0,3.331,0,5.064c-0.343-0.021-0.571-0.021-0.953-0.021
				c-0.57,0-1.181,0.021-1.487,0.021c-0.666-0.952-1.617-2.396-2.604-4.152c-0.875-1.488-1.45-2.515-1.832-3.6
				c-0.019,0-0.058,0.018-0.058,0.018c0.077,0.743,0.097,1.734,0.097,2.819c0,1.982,0.019,3.771,0.06,4.915
				c-0.498-0.021-0.861-0.021-1.298-0.021c-0.417,0-0.722,0-1.142,0.021c0.038-1.543,0.057-3.181,0.057-5.255
				c0-1.886-0.02-3.983-0.077-5.487c0.439,0.017,0.915,0.038,1.388,0.038c0.611,0,1.148,0,1.603-0.038
				c0.554,0.951,1.236,1.979,2.209,3.828c0.838,1.543,1.449,2.761,1.771,3.921l0.075-0.038c-0.075-1.027-0.134-2.034-0.134-3.164
				c0-1.444,0-2.949-0.094-4.547c0.513,0.038,0.876,0.038,1.409,0.038c0.42,0,0.745,0,1.087-0.038
				C-160.372,61.108-160.39,62.69-160.39,64.997z"/>
			<path fill="#D1D3D4" d="M-140.839,64.671c0,1.79,0.019,3.887,0.078,5.39c-0.402-0.021-0.84-0.021-1.125-0.021
				c-0.362,0-0.687,0-1.259,0.021c0.042-1.275,0.042-2.212,0.042-3.774c0-1.579,0.017-3.292,0.092-4.094l-0.075-0.037
				c-0.286,1.124-0.743,2.607-1.236,3.963c-0.572,1.598-0.992,2.666-1.543,3.941c-0.288-0.021-0.515-0.021-0.915-0.021
				c-0.401,0-0.631,0-0.936,0.021c-0.55-1.275-1.01-2.477-1.578-4.096c-0.479-1.22-0.893-2.762-1.2-3.791l-0.079,0.037
				c0.079,0.824,0.097,2.515,0.097,4.039c0,1.048,0,2.573,0.037,3.811c-0.228-0.021-0.838-0.037-1.195-0.037
				c-0.307,0-0.691,0.016-1.188,0.037c0.04-1.583,0.078-3.391,0.078-5.22c0-2-0.039-3.999-0.057-5.522
				c0.706,0.059,1.089,0.038,1.581,0.038c0.516,0,1.257-0.021,1.621-0.038c0.287,0.705,0.628,1.561,1.201,3.181
				c0.74,2.113,1.331,3.942,1.56,5.18h0.099c0.244-1.238,0.815-3.032,1.559-5.163c0.535-1.542,0.916-2.493,1.217-3.198
				c0.439,0.038,1.049,0.038,1.562,0.038c0.591,0,0.934,0,1.64-0.038C-140.821,60.614-140.839,62.479-140.839,64.671z"/>
			<path fill="#D1D3D4" d="M-128.503,65.718c0,4.017-3.009,4.588-4.628,4.588c-1.543,0-4.57-0.571-4.57-4.588
				c0-2.039-0.02-5.182-0.036-6.399c0.49,0.038,0.781,0.038,1.121,0.038c0.325,0,1.066-0.021,1.352-0.038
				c-0.037,1.561-0.057,4.702-0.057,6.284c0,1.045,0.075,2.362,2.228,2.362c2.136,0,2.211-1.408,2.211-2.344
				c0-1.771-0.041-4.719-0.076-6.302c0.246,0.017,1.083,0.038,1.426,0.038c0.401,0,0.609,0,1.086-0.038
				C-128.484,60.709-128.503,63.679-128.503,65.718z"/>
			<path fill="#D1D3D4" d="M-118.412,59.965c-0.152,0.648-0.25,1.486-0.286,2.151c-0.762-0.494-1.638-0.589-2.8-0.589
				c-1.505,0-2.134,0.457-2.134,1.2c0,0.762,0.285,0.933,2.171,1.237c2.269,0.363,3.009,1.221,3.009,2.84
				c0,2.055-1.487,3.466-4.075,3.466c-1.219,0-2.266-0.189-3.103-0.703c0.131-0.708,0.191-1.239,0.228-2.078
				c0.817,0.38,1.693,0.516,2.742,0.516c1.277,0,1.867-0.4,1.867-1.201c0-0.762-0.288-0.953-2.135-1.256
				c-2.303-0.363-3.063-1.165-3.063-2.895c0-2.021,1.637-3.468,4.457-3.468C-120.184,59.185-119.212,59.394-118.412,59.965z"/>
			<path fill="#D1D3D4" d="M-110.829,61.605c-1.142,0-1.924,0-2.554-0.02c0,0,0.038,0.819,0.038,1.18c0,0.364,0,0.497-0.018,1.03
				c0.4-0.017,0.952-0.017,1.886-0.017c0.875,0,1.905-0.022,2.363-0.042c0,0.439-0.019,0.685-0.019,0.972
				c0,0.325,0,0.723,0.019,1.048c-0.667-0.02-1.543-0.038-2.363-0.038c-0.971,0-1.316,0-1.906-0.038
				c0.038,0.208,0.059,0.649,0.059,1.026c0,0.422-0.021,0.859-0.059,1.143c0.516-0.037,1.466-0.037,2.515-0.037
				c0.953,0,1.754,0,2.381-0.035c-0.02,0.476-0.02,0.781-0.02,1.176c0,0.437,0.02,0.782,0.02,1.107
				c-0.934-0.021-2.114-0.021-3.295-0.021c-1.164,0-2.875,0-3.962,0.021c0.02-1.83,0.04-3.354,0.04-5.39
				c0-2.096,0-2.972-0.097-5.352c1.086,0.038,2.153,0.038,3.792,0.038c2.017,0,2.875-0.038,3.617-0.038
				c-0.021,0.419-0.038,0.61-0.038,1.103c0,0.516,0.017,0.743,0.038,1.219C-109.078,61.623-109.727,61.605-110.829,61.605z"/>
			<path fill="#D1D3D4" d="M-96.662,65.718c0,4.017-3.012,4.588-4.63,4.588c-1.543,0-4.568-0.571-4.568-4.588
				c0-2.039-0.022-5.182-0.04-6.399c0.494,0.038,0.781,0.038,1.122,0.038c0.326,0,1.067-0.021,1.354-0.038
				c-0.039,1.561-0.06,4.702-0.06,6.284c0,1.045,0.079,2.362,2.231,2.362c2.131,0,2.209-1.408,2.209-2.344
				c0-1.771-0.04-4.719-0.078-6.302c0.25,0.017,1.087,0.038,1.431,0.038c0.398,0,0.608,0,1.085-0.038
				C-96.643,60.709-96.662,63.679-96.662,65.718z"/>
			<path fill="#D1D3D4" d="M-81.65,64.671c0,1.79,0.02,3.887,0.077,5.39c-0.403-0.021-0.842-0.021-1.124-0.021
				c-0.363,0-0.687,0-1.259,0.021c0.038-1.275,0.038-2.212,0.038-3.774c0-1.579,0.021-3.292,0.095-4.094l-0.074-0.037
				c-0.286,1.124-0.746,2.607-1.24,3.963c-0.571,1.598-0.988,2.666-1.539,3.941c-0.292-0.021-0.517-0.021-0.917-0.021
				c-0.401,0-0.628,0-0.934,0.021c-0.552-1.275-1.009-2.477-1.581-4.096c-0.476-1.22-0.893-2.762-1.2-3.791l-0.078,0.037
				c0.078,0.824,0.097,2.515,0.097,4.039c0,1.048,0,2.573,0.038,3.811c-0.228-0.021-0.838-0.037-1.198-0.037
				c-0.307,0-0.688,0.016-1.184,0.037c0.036-1.583,0.079-3.391,0.079-5.22c0-2-0.043-3.999-0.06-5.522
				c0.703,0.059,1.087,0.038,1.581,0.038c0.515,0,1.259-0.021,1.62-0.038c0.285,0.705,0.629,1.561,1.201,3.181
				c0.743,2.113,1.331,3.942,1.56,5.18h0.099c0.242-1.238,0.815-3.032,1.56-5.163c0.534-1.542,0.915-2.493,1.218-3.198
				c0.436,0.038,1.048,0.038,1.562,0.038c0.59,0,0.934,0,1.639-0.038C-81.63,60.614-81.65,62.479-81.65,64.671z"/>
			<path fill="#D1D3D4" d="M-69.188,70.385c-3.274,0-5.238-2.44-5.238-5.694c0-3.393,1.81-5.561,5.238-5.561
				c3.453,0,5.221,2.168,5.221,5.561C-63.968,67.945-65.892,70.385-69.188,70.385z M-69.188,61.393
				c-2.055,0-2.913,1.049-2.913,3.333c0,2.096,0.954,3.391,2.913,3.391c1.983,0,2.9-1.294,2.9-3.391
				C-66.288,62.442-67.148,61.393-69.188,61.393z"/>
			<path fill="#D1D3D4" d="M-56.477,61.623c-0.917,0-1.698-0.018-2.361-0.038c0.055,0.379,0.037,0.686,0.037,1.161
				c0,0.496,0,0.914-0.037,1.41c0.305-0.017,1.428-0.037,2.131-0.037c1.009,0,1.562,0,1.905-0.041
				c-0.039,0.363-0.039,0.552-0.039,0.896s0.018,0.744,0.039,1.146c-0.437-0.022-0.915-0.022-1.925-0.022
				c-0.722,0-1.521,0-2.153-0.037c0.042,0.535,0.062,1.048,0.062,1.717c0,0.949,0.016,1.427,0.034,2.284
				c-0.341-0.021-0.934-0.021-1.274-0.021c-0.401,0-0.705,0-1.161,0.021c0.018-1.431,0.037-3.413,0.037-5.543
				c0-2-0.019-3.827-0.056-5.199c0.896,0.017,2.4,0.017,3.79,0.017c1.316,0,2.608,0,3.218-0.017c-0.02,0.381-0.02,0.55-0.02,1.05
				c0,0.511,0,0.875,0.02,1.29C-54.933,61.641-55.447,61.623-56.477,61.623z"/>
			<path fill="#D1D3D4" d="M-39.553,70.04c-0.513,0-0.854,0-1.313,0.021c-0.285-0.839-0.535-1.565-0.688-2.116
				c-0.608,0.04-1.083,0.04-2.053,0.04c-0.995,0-1.429,0-2.078-0.04c-0.114,0.534-0.38,1.237-0.666,2.116
				c-0.42-0.021-0.837-0.021-1.333-0.021c-0.456,0-0.724,0-1.159,0.021c0.473-1.258,0.703-2.133,1.159-3.466
				c0.951-2.781,1.926-5.715,2.418-7.276c0.533,0.017,1.144,0.038,1.694,0.038c0.517,0,1.184-0.021,1.62-0.038
				c0.478,1.542,1.465,4.495,2.419,7.276c0.459,1.333,0.686,2.228,1.161,3.466C-38.828,70.04-39.093,70.04-39.553,70.04z
				 M-43.591,61.358h-0.055c-0.211,0.933-0.8,2.798-1.543,4.796c0.572-0.034,0.914-0.034,1.56-0.034c0.742,0,1.009,0,1.599,0.034
				C-42.81,64.156-43.324,62.291-43.591,61.358z"/>
			<path fill="#D1D3D4" d="M-29.547,70.04c-0.572,0-1.046,0-1.56,0.021c-0.306-0.628-0.479-1.011-1.051-2.02
				c-0.705-1.124-0.97-1.485-1.312-1.866l-0.439-0.039c0.018,0.42,0.018,0.667,0.018,1.868c0,0.949,0.019,1.273,0.059,2.057
				c-0.479-0.021-0.896-0.021-1.201-0.021c-0.342,0-0.817,0-1.275,0.021c0.018-1.388,0.058-2.837,0.058-4.876
				c0-2.667-0.04-4.323-0.078-5.865h4.169c2.402,0,3.811,1.084,3.811,3.408c0,1.791-1.009,3.161-2.799,3.238v0.057
				c0.438,0.228,0.741,0.591,1.447,1.643c0.801,1.232,1.16,1.901,1.483,2.396C-28.803,70.04-29.031,70.04-29.547,70.04z
				 M-32.194,61.545h-1.734c0.038,0.419,0.038,0.84,0.038,1.429c0,0.569,0,0.84-0.038,1.447h1.753c0.399,0,1.467-0.038,1.467-1.483
				C-30.708,61.585-31.664,61.545-32.194,61.545z"/>
			<path fill="#D1D3D4" d="M-19.186,61.681c-0.819,0-1.182,0-1.981-0.059c0.055,1.008,0.097,2.114,0.097,3.734
				c0,2.076,0.037,3.387,0.056,4.704c-0.513-0.021-0.8-0.021-1.256-0.021c-0.439,0-0.782,0-1.24,0.021
				c0.04-1.41,0.056-2.628,0.056-4.744c0-1.599,0.04-2.664,0.097-3.695c-0.666,0.059-1.16,0.059-1.982,0.059
				c-0.589,0-0.834,0.018-1.332,0.057c0.018-0.345,0.018-0.836,0.018-1.296c0-0.381,0-0.723-0.018-1.123
				c1.466,0.038,3.179,0.038,4.401,0.038c1.256,0,3.026,0,4.436-0.038c-0.018,0.419-0.035,0.761-0.035,1.146
				c0,0.436,0,0.911,0.035,1.272C-18.349,61.699-18.596,61.681-19.186,61.681z"/>
		</g>
	</g>
	<g>
		<path fill="#6D6E71" d="M-197.458,12.467h8.549c5.946,0,9.104,3.251,9.104,10.127v13.285c0,6.875-3.158,10.127-9.104,10.127
			h-8.549V12.467z M-191.696,41.268h1.996c3.066,0,4.136-1.162,4.136-4.691V21.897c0-3.531-1.069-4.692-4.136-4.692h-1.996V41.268z"
			/>
		<path fill="#6D6E71" d="M-174.138,46.006V12.467h5.761v33.539H-174.138z"/>
		<path fill="#6D6E71" d="M-158.669,46.006h-5.574l6.179-33.539h7.153l6.178,33.539h-5.574l-1.023-7.433h-6.316L-158.669,46.006z
			 M-156.811,33.556h4.646l-2.276-14.4h-0.093L-156.811,33.556z"/>
		<path fill="#6D6E71" d="M-140.505,46.006V12.467h5.762v28.521h9.057v5.017H-140.505z"/>
		<path fill="#6D6E71" d="M-122.157,20.596c0-4.738,2.787-8.594,8.826-8.594c6.039,0,8.828,3.855,8.828,8.594v17.28
			c0,4.738-2.789,8.594-8.828,8.594c-6.039,0-8.826-3.855-8.826-8.594V20.596z M-116.396,37.737c0,2.509,0.743,3.716,3.064,3.716
			c2.324,0,3.067-1.208,3.067-3.716V20.735c0-2.508-0.743-3.716-3.067-3.716c-2.322,0-3.064,1.208-3.064,3.716V37.737z"/>
		<path fill="#6D6E71" d="M-90.985,29.004h9.428v17.002h-2.786l-1.068-2.509c-1.72,2.044-3.112,2.973-5.807,2.973
			c-4.552,0-7.711-3.251-7.711-8.594v-17.28c0-4.738,2.788-8.594,8.454-8.594c5.76,0,8.641,4.181,8.641,9.197v2.137h-5.48
			c0-5.017-1.023-6.317-3.299-6.317c-1.394,0-2.556,0.836-2.556,3.669v17.234c0,2.136,0.697,3.53,2.694,3.53
			c2.323,0,3.16-1.301,3.16-4.646v-3.251h-3.67V29.004z"/>
		<path fill="#6D6E71" d="M-75.703,12.467h5.76v25.316c0,2.462,0.975,3.67,3.066,3.67c2.09,0,3.066-1.208,3.066-3.67V12.467h5.759
			v25.084c0,5.76-3.344,8.919-8.826,8.919c-5.48,0-8.826-3.159-8.826-8.919V12.467z"/>
		<path fill="#6D6E71" d="M-52.477,46.006V12.467h15.422v5.016h-9.661v8.641h7.432v5.017h-7.432v9.848h10.313v5.017H-52.477z"/>
		<path fill="#6D6E71" d="M-22.514,20.735c-0.232-2.88-1.767-3.716-3.067-3.716c-1.857,0-2.879,1.208-2.879,3.298
			c0,5.714,11.706,8.454,11.706,17.559c0,5.528-3.717,8.594-9.104,8.594c-5.342,0-8.408-4.273-8.64-9.291l5.481-0.789
			c0.231,3.391,1.579,5.063,3.436,5.063c1.999,0,3.345-1.069,3.345-3.066c0-6.643-11.706-8.409-11.706-18.024
			c0-5.342,3.252-8.361,8.92-8.361c4.691,0,7.479,3.391,7.989,8.129L-22.514,20.735z"/>
	</g>
</g>
</svg>
