<?xml version="1.0" encoding="utf-8"?>
<!-- Generator: Adobe Illustrator 16.0.3, SVG Export Plug-In . SVG Version: 6.00 Build 0)  -->
<!DOCTYPE svg PUBLIC "-//W3C//DTD SVG 1.1//EN" "http://www.w3.org/Graphics/SVG/1.1/DTD/svg11.dtd">
<svg version="1.1" id="Layer_1" xmlns="http://www.w3.org/2000/svg" xmlns:xlink="http://www.w3.org/1999/xlink" x="0px" y="0px"
	 width="389.334px" height="50px" viewBox="0 0 389.334 50" enable-background="new 0 0 389.334 50" xml:space="preserve">
<g id="video-icon">
	<g>
		<rect x="39.055" y="33.428" fill="#020202" width="3.759" height="3.076"/>
		<rect x="23.906" y="13.497" fill="#020202" width="12.529" height="10.422"/>
		<rect x="39.055" y="28.417" fill="#020202" width="3.759" height="3.075"/>
		<rect x="23.906" y="26.225" fill="#020202" width="12.529" height="10.308"/>
		<rect x="39.055" y="23.348" fill="#020202" width="3.759" height="3.076"/>
		<rect x="39.055" y="13.382" fill="#020202" width="3.759" height="3.075"/>
		<rect x="39.055" y="18.394" fill="#020202" width="3.759" height="3.075"/>
		<rect x="17.643" y="13.439" fill="#020202" width="3.758" height="3.076"/>
		<rect x="17.643" y="33.484" fill="#020202" width="3.758" height="3.076"/>
		<path fill="#020202" d="M30,0C16.193,0,5,11.193,5,25c0,13.809,11.193,25,25,25s25-11.193,25-25C55,11.193,43.807,0,30,0z
			 M45.433,39.635H14.909V10.479h30.524V39.635z"/>
		<rect x="17.643" y="28.475" fill="#020202" width="3.758" height="3.074"/>
		<rect x="17.643" y="23.405" fill="#020202" width="3.758" height="3.075"/>
		<rect x="17.643" y="18.451" fill="#020202" width="3.758" height="3.075"/>
	</g>
</g>
<g id="geo-icon">
	<g>
		<circle fill="none" cx="85" cy="19.192" r="4.157"/>
		<path fill="none" d="M85,6.492c-6.208,0-9.498,3.985-10.763,5.695c-1.658,2.241-2.72,6.972-1.822,10.364
			C74.465,30.296,85,44.305,85,44.305c8.371-10.25,11.519-18.058,12.585-22.323c1.253-5.012-0.912-8.542-2.164-10.365
			C94.169,9.795,91.208,6.492,85,6.492z M93.257,23.349C92.46,26.879,85,37.471,85,37.471s-7.232-10.82-8.03-14.35
			c-0.797-3.531-1.025-4.556-0.228-7.176c0.797-2.62,5.179-5.125,8.228-5.125c3.048,0,7.034,2.164,8.287,5.011
			C94.51,18.679,94.055,19.818,93.257,23.349z"/>
		<g>
			<g>
				<path fill="#020202" d="M93.257,15.831c-1.253-2.847-5.239-5.011-8.287-5.011c-3.048,0-7.431,2.505-8.228,5.125
					c-0.797,2.62-0.57,3.645,0.228,7.176C77.767,26.65,85,37.471,85,37.471s7.46-10.592,8.257-14.123
					C94.055,19.818,94.51,18.679,93.257,15.831z M85,23.349c-2.296,0-4.157-1.861-4.157-4.157s1.861-4.157,4.157-4.157
					s4.157,1.86,4.157,4.157C89.157,21.487,87.296,23.349,85,23.349z"/>
			</g>
		</g>
		<g>
			<g>
				<path fill="#020202" d="M85,0C71.192,0,60,11.192,60,25c0,13.809,11.192,25,25,25s25-11.191,25-25C110,11.192,98.808,0,85,0z
					 M97.585,21.982C96.519,26.247,93.371,34.055,85,44.305c0,0-10.535-14.009-12.585-21.754c-0.898-3.392,0.164-8.123,1.822-10.364
					c1.265-1.71,4.556-5.695,10.763-5.695s9.169,3.303,10.422,5.125C96.674,13.44,98.838,16.97,97.585,21.982z"/>
			</g>
		</g>
	</g>
</g>
<g id="audio-icon">
	<g>
		<g>
			<path fill="#020202" d="M140,0c-13.807,0-25,11.192-25,25c0,13.807,11.193,25,25,25s25-11.193,25-25C165,11.192,153.807,0,140,0z
				 M129.009,31.948c0,0-3.892,0.253-5.467,0c-2.647-0.425-2.164-2.62-2.164-2.62s-0.342-7.518,0-9.339
				c0.341-1.823,2.392-1.937,2.392-1.937h5.239V31.948z M144.727,40.262l-12.87-7.631V17.255l12.87-7.29V40.262z M148.143,30.467
				c0,0,5.012-5.922,0-10.934l2.62-2.961c0,0,7.63,7.745,0,16.629L148.143,30.467z M154.864,37.415l-2.848-3.075
				c0,0,9.795-9.396,0-18.793l2.848-3.075C154.864,12.471,167.62,25,154.864,37.415z"/>
		</g>
	</g>
</g>
<g id="poll-icon">
	<path fill="#020202" d="M195,0c-13.807,0-25,11.193-25,25c0,13.807,11.193,25,25,25s25-11.193,25-25C220,11.193,208.807,0,195,0z
		 M197.676,42.854c-0.848,0.856-1.876,1.287-3.085,1.287s-2.237-0.43-3.084-1.287c-0.848-0.855-1.272-1.889-1.272-3.098
		c0-1.208,0.425-2.236,1.272-3.085c0.849-0.847,1.876-1.271,3.084-1.271s2.237,0.424,3.085,1.271
		c0.848,0.849,1.271,1.876,1.271,3.085C198.948,40.965,198.523,41.998,197.676,42.854z M204.928,19.178
		c-0.938,1.453-2.751,3.062-5.439,4.83c-1.803,1.19-2.989,2.25-3.557,3.18c-0.568,0.93-0.916,2.351-1.043,4.263h-1.109
		c-0.036-2.002,0.059-3.5,0.285-4.492c0.225-0.992,0.812-2.358,1.759-4.099c0.946-1.741,1.569-3.139,1.866-4.194
		c0.299-1.055,0.447-2.358,0.447-3.91c0-2.399-0.469-4.167-1.406-5.304c-0.938-1.136-2.047-1.705-3.328-1.705
		c-0.975,0-1.795,0.262-2.463,0.785c-0.504,0.396-0.758,0.812-0.758,1.245c0,0.289,0.172,0.74,0.514,1.353
		c0.775,1.389,1.164,2.571,1.164,3.545c0,0.884-0.301,1.624-0.905,2.219c-0.604,0.595-1.356,0.893-2.259,0.893
		c-1.012,0-1.858-0.356-2.545-1.069c-0.686-0.712-1.027-1.655-1.027-2.827c0-2.128,0.92-3.996,2.76-5.602
		c1.84-1.605,4.411-2.408,7.713-2.408c3.498,0,6.164,0.835,7.995,2.503c1.831,1.669,2.747,3.685,2.747,6.048
		C206.335,16.143,205.866,17.726,204.928,19.178z"/>
</g>
<g id="info-icon">
	<path fill="#020202" d="M250,0c-13.809,0-25,11.193-25,25c0,13.807,11.191,25,25,25c13.807,0,25-11.193,25-25
		C275,11.193,263.807,0,250,0z M250.799,40.425c-2.18,1.171-3.254,1.732-4.227,1.98c-0.672,0.194-1.297,0.292-1.877,0.292
		c-0.881,0-1.561-0.227-2.035-0.678s-1.602-1.262-1.602-2.271c0-1.328,0.625-3.51,1.366-5.581l2.277-6.378
		c1.173-3.168,1.569-4.834,1.741-5.835l-0.096-0.421c-0.371,0-0.929,0.139-1.67,0.425c-0.59,0.228-1.061,0.356-2.785,1l-0.836-1.434
		c5.613-3.116,7.123-3.683,8.631-4.267c1.946-0.744,3.406-1.115,4.381-1.115c0.625,0,1.146,0.182,1.564,0.544
		c0.417,0.363,0.625,0.873,0.625,1.527c0,1.257-0.754,3.842-2.261,7.754l-1.142,2.868c-1.736,4.426-1.926,5.633-2.328,6.73
		c-0.529,1.449,0.324,1.334,0.324,1.334c0.603,0,1.534-0.577,4.897-2.277c0,0,0.854,0.936,0.938,1.408
		C256.775,36.503,250.799,40.425,250.799,40.425z M255.996,13.965c-2.444,0.916-5.098-0.133-5.924-2.342
		c-0.827-2.209,0.484-4.742,2.928-5.657c2.445-0.916,5.098,0.133,5.925,2.342S258.441,13.05,255.996,13.965z"/>
</g>
<g id="image-icon">
	<g>
		<path fill="#020202" d="M309.271,14.351H300.5l-2.277,4.214h-6.15v4.897h4.979c-0.053,0.372-0.081,0.752-0.081,1.139
			c0,4.34,3.518,7.858,7.857,7.858s7.857-3.52,7.857-7.858c0-0.387-0.028-0.768-0.083-1.139h5.096v-4.897h-6.605L309.271,14.351z
			 M304.886,29.557c-2.831,0-5.125-2.296-5.125-5.125c0-2.831,2.294-5.125,5.125-5.125s5.126,2.295,5.126,5.125
			C310.012,27.261,307.717,29.557,304.886,29.557z"/>
		<path fill="#020202" d="M305,0c-13.809,0-25,11.193-25,25c0,13.807,11.191,25,25,25c13.807,0,25-11.193,25-25
			C330,11.193,318.807,0,305,0z M320.774,35.877h-31.892V15.034h7.631l1.822-3.986h12.87l1.822,3.645l7.745,0.228L320.774,35.877
			L320.774,35.877z"/>
		<path fill="#020202" d="M303.348,21.071c0,0-0.568,0.569-1.365,1.367c-0.799,0.797,0.684,2.164,1.451,0.968
			c0.771-1.196,1.281-0.512,1.452-1.651C305.057,20.615,303.348,21.071,303.348,21.071z"/>
	</g>
</g>
<g>
	<path fill="#020202" d="M370.25,20.5c-0.589-0.997-2.083-1.292-2.5,0.333s-0.167,3.312-0.167,3.312h-2.208
		c0,0,0.167-4.979-0.065-5.696s-1.227-0.866-1.227-0.866c-0.994-0.148-1.208,1.042-1.208,1.042v4.125H360.5c0,0-0.071-5.123-0.083-6
		s-1.129-0.826-1.129-0.826S358,15.833,358,17.208s0,5.625,0,5.625l-2.292-0.083c0,0-0.118-13.666-0.125-14.417
		s-1.25-0.75-1.25-0.75s-1.166-0.001-1.166,1s-0.042,20.5-0.042,20.5l-2.091,0.041l0.008-2.291c0,0-2.542-3.333-3.459-3.678
		c-0.833-0.572-1.25-1.156-2.02-0.477c-0.731,0.646-0.646,1.446,0.02,2.071c0,0,2.625,2.334,4.542,5.5
		c2.059,2.561,4.208,9.5,4.208,9.5h14.334c0,0,1.916-5.083,2.25-8.5s0.069-6.869,0-8.095S370.792,21.417,370.25,20.5z"/>
	<path fill="#020202" d="M360,0c-13.809,0-25,11.193-25,25c0,13.807,11.191,25,25,25c13.807,0,25-11.193,25-25
		C385,11.193,373.807,0,360,0z M372.917,33.584c-0.541,4.125-3.084,8.333-3.084,8.333h-17.416c0,0,0,0-0.334-2.333
		s-2.75-6.875-4.166-9s-4.209-4.541-4.667-5.584c0,0-0.833-2.333,0.917-3.833c0,0,1.833-1.833,4.333-0.167l2.5,2.155
		c0,0-0.292-14.738,0-15.488c1.125-2.333,3.333-2.333,3.333-2.333s2.834-0.208,3.584,2.75l0.08,5.774
		c0.226-0.051,0.669-0.094,1.503-0.107c2.113-0.035,2.722,1.472,2.869,1.985c0.212-0.065,0.678-0.145,1.631-0.235
		c2.625-0.25,3.375,2.375,3.375,2.375s2.833-1.333,4.708,1.417c0,0,0.75,1.458,1.167,4.854S373.458,29.459,372.917,33.584z"/>
</g>
</svg>
